<?xml version="1.0" standalone="no"?><!DOCTYPE svg PUBLIC "-//W3C//DTD SVG 1.1//EN" "http://www.w3.org/Graphics/SVG/1.1/DTD/svg11.dtd"><svg t="1746866783048" class="icon" viewBox="0 0 1024 1024" version="1.1" xmlns="http://www.w3.org/2000/svg" p-id="1972" xmlns:xlink="http://www.w3.org/1999/xlink" width="200" height="200"><path d="M128 384h128v64H128zM64 448h64v64H64zM0 512h64v64H0zM64 576h64v64H64zM128 640h128v64H128zM768 640h128v64H768zM896 576h64v64h-64zM768 384h128v64H768zM896 448h64v64h-64zM960 512h64v64h-64zM256 320h512v64H576v64h64v192h-64v64h192v64H256v-64h192v-64h-64V448h64v-64H256z" fill="#515151" p-id="1973"></path></svg>