<?xml version="1.0" standalone="no"?><!DOCTYPE svg PUBLIC "-//W3C//DTD SVG 1.1//EN" "http://www.w3.org/Graphics/SVG/1.1/DTD/svg11.dtd"><svg t="1746866944150" class="icon" viewBox="0 0 1024 1024" version="1.1" xmlns="http://www.w3.org/2000/svg" p-id="4160" xmlns:xlink="http://www.w3.org/1999/xlink" width="200" height="200"><path d="M0.68 577.91v64h64v64h64v64h128v64h512v-64h128v-64h64v-64h64v-64h-64l-64 64-128 64h-512l-128-64-64-64zM128.68 513.91h128v-64h512v64h128v64h64v-64l-64-64-128-64h-512l-128 64-64 64v64h64z" fill="#8A8A8A" p-id="4161"></path><path d="M256.68 321.91h512v64h-512zM128.68 385.91h128v64h-128zM64.68 449.91h64v64h-64zM0.68 513.91h64v64h-64zM64.68 577.91h64v64h-64zM128.68 641.91h128v64h-128zM256.68 705.91h512v64h-512zM768.68 641.91h128v64h-128zM896.68 577.91h64v64h-64zM768.68 385.91h128v64h-128zM896.68 449.91h64v64h-64z" fill="#515151" p-id="4162"></path><path d="M960.68 513.91h64v64h-64zM448.68 449.91h128v192h-128z" fill="#515151" p-id="4163"></path><path d="M448.68 641.91h128l-1.04 63.64-127.66 1.02z" fill="#8A8A8A" p-id="4164"></path><path d="M896 320v-64h-64l-64 64-575.32 576H128l0.68 64H256v-64h64v-64l63.98 0.32L384 768h64.68l-0.68-64h64v-64l64.68 1.91L576 576h64v-64h64v-64l64.68 1.91L768 384l64 1.91V320z" fill="#3A3A3A" p-id="4165"></path><path d="M768 192h128v64h-64v64h-64v64h-64v64h-64v64h-64v64h-64v64h-64v64h-64v64h-64v64h-64v64H128v-64h64v-64h64v-64h64v-64h64v-64h64v-64h64v-64h64v-64h64v-64h64v-64h64z" fill="#1E1E1E" p-id="4166"></path></svg>