<?xml version="1.0" standalone="no"?><!DOCTYPE svg PUBLIC "-//W3C//DTD SVG 1.1//EN" "http://www.w3.org/Graphics/SVG/1.1/DTD/svg11.dtd"><svg t="1746866724376" class="icon" viewBox="0 0 1024 1024" version="1.1" xmlns="http://www.w3.org/2000/svg" p-id="1806" xmlns:xlink="http://www.w3.org/1999/xlink" width="200" height="200"><path d="M320 128h320v64H320zM640 192h64v64h-64zM704 256h64v64h-64zM640 448h64v64h-64zM704 576v-64h64V320h64v192h64v64h-64v64h-64v-64zM256 192h64v64h-64zM192 256h64v64h-64zM128 320h64v320h-64zM192 640h64v64h-64zM256 704h64v64h-64zM320 768h320v64H320zM640 704h64v64h-64zM896 448h64v64h-64z" fill="#515151" p-id="1807"></path></svg>